<?xml version="1.0"?>
<svg version="1.1" xmlns="http://www.w3.org/2000/svg" width="400" height="100" style=""><path fill="#63a4ab" d="M25.11,51.77c0,0.09,0,0.18-0.03,0.27l-0.33,2.13c-0.03,0.27-0.18,0.39-0.42,0.39l-0.12,0c-0.24-0.06-0.54-0.09-0.81-0.09c-1.02,0-2.13,0.54-2.88,1.44l0,9.54c0,0.48-0.21,0.75-0.72,0.75l-2.19,0c-0.48,0-0.72-0.24-0.72-0.75l0-9.36l0-3.69c0-0.6,0.3-0.75,0.75-0.75l1.92,0c0.48,0,0.75,0.15,0.75,0.57l0.03,0.96c0.93-1.17,1.95-1.92,3.63-1.92c0.24,0,0.57,0.06,0.84,0.12c0.21,0.06,0.3,0.15,0.3,0.39z M41.745,58.88c0,0.72-0.24,0.87-0.99,0.87l-8.79,0c0.24,2.31,1.92,3.9,4.29,3.9c1.26,0,2.58-0.3,3.69-0.72c0.12-0.03,0.21-0.09,0.33-0.09c0.21,0,0.36,0.12,0.42,0.36l0.42,1.53c0.03,0.15,0.06,0.27,0.06,0.36c0,0.21-0.12,0.36-0.48,0.51c-1.47,0.66-3.48,0.96-5.04,0.96c-4.71,0-7.5-3-7.5-7.68c0-4.5,2.97-7.62,7.44-7.62c1.83,0,3.33,0.69,4.38,1.8c1.38,1.44,1.77,3.33,1.77,5.37l0,0.45z M38.175,57.38l0-0.33c-0.06-1.56-0.96-3-2.79-3c-1.95,0-3.12,1.56-3.36,3.33l6.15,0z M60.39,65.63c0,0.36-0.24,0.57-0.6,0.57l-1.44,0c-1.56,0-2.25-0.75-2.46-1.77l-0.06,0c-0.75,1.11-2.7,2.13-4.35,2.13c-4.23,0-6.15-3.48-6.15-7.38c0-5.19,3.12-7.92,6.48-7.92c1.59,0,3.09,0.72,3.84,1.74l0.06-0.81c0.03-0.33,0.27-0.54,0.63-0.54l2.1,0c0.39,0,0.63,0.21,0.63,0.66l0,10.41c0,0.42,0.06,0.72,0.18,0.87c0.09,0.09,0.21,0.12,0.36,0.12l0.24,0c0.36,0,0.54,0.12,0.54,0.51l0,1.41z M55.44,61.55l0-5.79c-0.6-0.87-1.83-1.53-2.97-1.53c-1.83,0-3.39,1.56-3.39,4.71c0,2.52,0.96,4.65,3.18,4.65c1.47,0,2.73-1.11,3.18-2.04z M75.735,65.18c0,0.24-0.15,0.36-0.42,0.48c-1.44,0.66-2.76,0.9-4.35,0.9c-4.62,0-7.17-2.88-7.17-7.5c0-4.65,2.79-7.8,7.44-7.8c1.35,0,2.76,0.27,4.02,0.84c0.24,0.12,0.36,0.18,0.36,0.42c0,0.09-0.03,0.27-0.06,0.36l-0.39,1.59c-0.06,0.27-0.18,0.42-0.36,0.42c-0.09,0-0.21-0.06-0.33-0.12c-0.87-0.36-1.83-0.66-2.88-0.66c-2.58,0-4.05,1.83-4.05,4.77c0,2.88,1.32,4.86,3.9,4.86c1.29,0,2.1-0.24,3.15-0.66c0.09-0.03,0.21-0.09,0.3-0.09c0.18,0,0.3,0.15,0.36,0.36l0.39,1.32c0.06,0.21,0.09,0.39,0.09,0.51z M89.04,65.3c0,0.3-0.15,0.45-0.45,0.57c-0.93,0.39-2.16,0.69-3.36,0.69c-1.53,0-2.85-0.39-3.6-1.26c-0.93-1.05-0.96-2.28-0.96-4.47l0-6.69l-1.41,0c-0.57,0-0.66-0.12-0.66-0.75l0-1.14c0-0.36,0.18-0.6,0.54-0.6l1.53,0l0-3.27c0-0.51,0.27-0.66,0.75-0.72l2.16-0.27l0.15,0c0.39,0,0.57,0.21,0.57,0.66l0,3.6l3.39,0c0.36,0,0.57,0.12,0.57,0.51l0,1.41c0,0.36-0.24,0.57-0.6,0.57l-3.36,0l0,6.87c0,0.9,0.06,1.56,0.39,2.04c0.27,0.39,0.69,0.63,1.41,0.63c0.75,0,1.38-0.18,1.92-0.36c0.12-0.03,0.21-0.06,0.3-0.06c0.21,0,0.33,0.12,0.39,0.36l0.3,1.5c0.03,0.09,0.03,0.12,0.03,0.18z M113.16,65.18c0,0.24-0.15,0.36-0.42,0.48c-1.44,0.66-2.76,0.9-4.35,0.9c-4.62,0-7.17-2.88-7.17-7.5c0-4.65,2.79-7.8,7.44-7.8c1.35,0,2.76,0.27,4.02,0.84c0.24,0.12,0.36,0.18,0.36,0.42c0,0.09-0.03,0.27-0.06,0.36l-0.39,1.59c-0.06,0.27-0.18,0.42-0.36,0.42c-0.09,0-0.21-0.06-0.33-0.12c-0.87-0.36-1.83-0.66-2.88-0.66c-2.58,0-4.05,1.83-4.05,4.77c0,2.88,1.32,4.86,3.9,4.86c1.29,0,2.1-0.24,3.15-0.66c0.09-0.03,0.21-0.09,0.3-0.09c0.18,0,0.3,0.15,0.36,0.36l0.39,1.32c0.06,0.21,0.09,0.39,0.09,0.51z M121.035,65.45c0,0.51-0.24,0.75-0.66,0.75l-2.28,0c-0.42,0-0.69-0.21-0.69-0.72l0-19.68c0-0.51,0.21-0.66,0.6-0.72l2.16-0.3c0.06,0,0.15-0.03,0.21-0.03c0.36,0,0.66,0.18,0.66,0.66l0,20.04z M140.73,65.63c0,0.36-0.24,0.57-0.6,0.57l-1.44,0c-1.56,0-2.25-0.75-2.46-1.77l-0.06,0c-0.75,1.11-2.7,2.13-4.35,2.13c-4.23,0-6.15-3.48-6.15-7.38c0-5.19,3.12-7.92,6.48-7.92c1.59,0,3.09,0.72,3.84,1.74l0.06-0.81c0.03-0.33,0.27-0.54,0.63-0.54l2.1,0c0.39,0,0.63,0.21,0.63,0.66l0,10.41c0,0.42,0.06,0.72,0.18,0.87c0.09,0.09,0.21,0.12,0.36,0.12l0.24,0c0.36,0,0.54,0.12,0.54,0.51l0,1.41z M135.78,61.55l0-5.79c-0.6-0.87-1.83-1.53-2.97-1.53c-1.83,0-3.39,1.56-3.39,4.71c0,2.52,0.96,4.65,3.18,4.65c1.47,0,2.73-1.11,3.18-2.04z M154.815,61.91c0,3.15-2.73,4.65-5.79,4.65c-1.56,0-3.27-0.45-4.62-1.05c-0.27-0.12-0.36-0.3-0.36-0.48c0-0.09,0.03-0.18,0.06-0.27l0.48-1.53c0.09-0.3,0.24-0.42,0.42-0.42c0.09,0,0.18,0,0.33,0.06c1.32,0.54,2.73,0.93,3.78,0.93c1.32,0,2.22-0.6,2.22-1.59c0-0.84-0.57-1.29-1.8-1.77l-2.37-0.9c-1.71-0.63-3.09-1.95-3.09-3.99c0-2.94,2.76-4.29,5.43-4.29c1.44,0,2.85,0.24,4.35,0.9c0.24,0.12,0.36,0.24,0.36,0.42c0,0.09-0.03,0.18-0.06,0.3l-0.51,1.62c-0.06,0.21-0.21,0.33-0.42,0.33c-0.09,0-0.21-0.03-0.3-0.06c-0.99-0.39-2.28-0.72-3.24-0.72c-1.26,0-1.89,0.69-1.89,1.38c0,0.66,0.33,1.08,1.47,1.53l2.7,1.11c1.59,0.66,2.85,1.89,2.85,3.84z M168.93,61.91c0,3.15-2.73,4.65-5.79,4.65c-1.56,0-3.27-0.45-4.62-1.05c-0.27-0.12-0.36-0.3-0.36-0.48c0-0.09,0.03-0.18,0.06-0.27l0.48-1.53c0.09-0.3,0.24-0.42,0.42-0.42c0.09,0,0.18,0,0.33,0.06c1.32,0.54,2.73,0.93,3.78,0.93c1.32,0,2.22-0.6,2.22-1.59c0-0.84-0.57-1.29-1.8-1.77l-2.37-0.9c-1.71-0.63-3.09-1.95-3.09-3.99c0-2.94,2.76-4.29,5.43-4.29c1.44,0,2.85,0.24,4.35,0.9c0.24,0.12,0.36,0.24,0.36,0.42c0,0.09-0.03,0.18-0.06,0.3l-0.51,1.62c-0.06,0.21-0.21,0.33-0.42,0.33c-0.09,0-0.21-0.03-0.3-0.06c-0.99-0.39-2.28-0.72-3.24-0.72c-1.26,0-1.89,0.69-1.89,1.38c0,0.66,0.33,1.08,1.47,1.53l2.7,1.11c1.59,0.66,2.85,1.89,2.85,3.84z"/><path fill="#" d=""/></svg>
